<svg height="682pt" viewBox="-21 -44 682.66669 682" width="682pt" xmlns="http://www.w3.org/2000/svg"><path d="m257.21875 592.191406c-141.832031 0-257.21875-115.382812-257.21875-257.214844 0-141.828124 115.386719-257.21875 257.21875-257.21875 45.804688 0 90.785156 12.199219 130.078125 35.273438l15.203125 8.933594-56.210938 110.179687-17.339843-10.957031c-21.429688-13.546875-46.234375-20.703125-71.730469-20.703125-74.164062 0-134.492188 60.332031-134.492188 134.492187 0 74.164063 60.328126 134.496094 134.492188 134.496094 28.019531 0 55.511719-8.65625 77.410156-24.378906 14.320313-10.277344 25.882813-23.351562 33.867188-38.027344l-117.515625-.003906v-117.351562h260.105469l1.78125 16.730468c1.007812 9.5 1.566406 19.632813 1.566406 28.535156 0 141.832032-115.386719 257.214844-257.214844 257.214844zm0 0"/><path d="m585.96875 207.035156h-100.222656v-54.03125h-54.03125v-100.21875h54.03125v-54.035156h100.222656v54.035156h54.03125v100.21875h-54.03125zm0 0"/></svg>